<?xml version="1.0" encoding="UTF-8" standalone="no"?>
<!-- Created with Inkscape (http://www.inkscape.org/) -->

<svg
   xmlns:ns0="http://www.iki.fi/pav/software/textext/"
   xmlns:dc="http://purl.org/dc/elements/1.1/"
   xmlns:cc="http://creativecommons.org/ns#"
   xmlns:rdf="http://www.w3.org/1999/02/22-rdf-syntax-ns#"
   xmlns:svg="http://www.w3.org/2000/svg"
   xmlns="http://www.w3.org/2000/svg"
   xmlns:xlink="http://www.w3.org/1999/xlink"
   xmlns:sodipodi="http://sodipodi.sourceforge.net/DTD/sodipodi-0.dtd"
   xmlns:inkscape="http://www.inkscape.org/namespaces/inkscape"
   width="744.09448819"
   height="1052.3622047"
   id="svg3104"
   version="1.1"
   inkscape:version="0.48.3.1 r9886"
   sodipodi:docname="equal.svg">
  <sodipodi:namedview
     id="base"
     pagecolor="#ffffff"
     bordercolor="#666666"
     borderopacity="1.0"
     inkscape:pageopacity="0.0"
     inkscape:pageshadow="2"
     inkscape:zoom="1.4142136"
     inkscape:cx="258.99069"
     inkscape:cy="706.7521"
     inkscape:document-units="px"
     inkscape:current-layer="layer1"
     showgrid="false"
     inkscape:window-width="1600"
     inkscape:window-height="900"
     inkscape:window-x="0"
     inkscape:window-y="0"
     inkscape:window-maximized="0" />
  <defs
     id="defs3106" />
  <metadata
     id="metadata3109">
    <rdf:RDF>
      <cc:Work
         rdf:about="">
        <dc:format>image/svg+xml</dc:format>
        <dc:type
           rdf:resource="http://purl.org/dc/dcmitype/StillImage" />
        <dc:title></dc:title>
      </cc:Work>
    </rdf:RDF>
  </metadata>
  <g
     inkscape:label="Layer 1"
     inkscape:groupmode="layer"
     id="layer1">
    <rect
       style="fill:none;stroke:#000000;stroke-width:0.89494723;stroke-linecap:round;stroke-miterlimit:4;stroke-opacity:1;stroke-dasharray:none;stroke-dashoffset:0"
       id="rect3112"
       width="430.34293"
       height="314.75595"
       x="244.92645"
       y="289.73764"
       rx="0"
       ry="47" />
    <path
       sodipodi:type="arc"
       style="fill:#c633cd;stroke:#000000;stroke-width:1;stroke-linecap:round;stroke-miterlimit:4;stroke-opacity:1;stroke-dasharray:none;stroke-dashoffset:0;fill-opacity:0.28063241"
       id="path3882"
       sodipodi:cx="455.84149"
       sodipodi:cy="462.02145"
       sodipodi:rx="121.67328"
       sodipodi:ry="121.67328"
       d="m 577.51477,462.02145 a 121.67328,121.67328 0 1 1 -243.34656,0 121.67328,121.67328 0 1 1 243.34656,0 z"
       transform="translate(4.256424,-14.905838)" />
    <path
       d="m 497.09254,472.42087 a 66.902969,66.902969 0 1 1 -133.80593,0 66.902969,66.902969 0 1 1 133.80593,0 z"
       sodipodi:ry="66.902969"
       sodipodi:rx="66.902969"
       sodipodi:cy="472.42087"
       sodipodi:cx="430.18958"
       id="path4099"
       style="fill:#84a6e1;stroke:#000000;stroke-width:1.10000001999999997;stroke-linecap:round;stroke-miterlimit:4;stroke-opacity:1;stroke-dasharray:none;stroke-dashoffset:0;fill-opacity:1"
       sodipodi:type="arc" />
    <g
       transform="matrix(5,0,0,5,501,373)"
       ns0:text="B"
       ns0:preamble=""
       ns0:page_width="8.5in"
       style="stroke-width:0.0000001"
       id="g4160">
      <defs
         id="defs4162">
        <g
           id="g4164">
          <symbol
             overflow="visible"
             id="textext-4a6c4f8f-0"
             style="overflow:visible">
            <path
               style="stroke:none"
               d=""
               id="path4167"
               inkscape:connector-curvature="0" />
          </symbol>
          <symbol
             overflow="visible"
             id="textext-4a6c4f8f-1"
             style="overflow:visible">
            <path
               style="stroke:none"
               d="m 2.21875,-3.65625 0,-2.4375 C 2.21875,-6.4375 2.234375,-6.5 2.703125,-6.5 l 1.234375,0 c 0.96875,0 1.3125,0.84375 1.3125,1.375 0,0.640625 -0.484375,1.46875 -1.59375,1.46875 z M 4.5625,-3.5625 C 5.53125,-3.75 6.21875,-4.390625 6.21875,-5.125 6.21875,-5.984375 5.296875,-6.8125 4,-6.8125 l -3.640625,0 0,0.3125 0.234375,0 c 0.765625,0 0.796875,0.109375 0.796875,0.46875 l 0,5.25 c 0,0.359375 -0.03125,0.46875 -0.796875,0.46875 l -0.234375,0 0,0.3125 3.90625,0 c 1.328125,0 2.21875,-0.890625 2.21875,-1.828125 0,-0.859375 -0.8125,-1.609375 -1.921875,-1.734375 z m -0.609375,3.25 -1.25,0 c -0.46875,0 -0.484375,-0.0625 -0.484375,-0.390625 l 0,-2.71875 1.875,0 C 5.078125,-3.421875 5.5,-2.5 5.5,-1.828125 5.5,-1.125 4.96875,-0.3125 3.953125,-0.3125 z"
               id="path4170"
               inkscape:connector-curvature="0" />
          </symbol>
        </g>
      </defs>
      <g
         id="textext-4a6c4f8f-2">
        <g
           style="fill:#000000;fill-opacity:1"
           id="g4173">
          <use
             xlink:href="#textext-4a6c4f8f-1"
             x="0"
             y="9.9630003"
             id="use4175"
             width="744.09448"
             height="1052.3622" />
        </g>
      </g>
    </g>
    <g
       id="g4231"
       style="stroke-width:0.0000001"
       ns0:page_width="8.5in"
       ns0:preamble=""
       ns0:text="A"
       transform="matrix(5,0,0,5,404,444)">
      <defs
         id="defs4233">
        <g
           id="g4235">
          <symbol
             id="textext-00640738-0"
             overflow="visible"
             style="overflow:visible">
            <path
               id="path4238"
               d=""
               style="stroke:none"
               inkscape:connector-curvature="0" />
          </symbol>
          <symbol
             id="textext-00640738-1"
             overflow="visible"
             style="overflow:visible">
            <path
               id="path4241"
               d="m 3.96875,-6.9375 c -0.046875,-0.125 -0.078125,-0.203125 -0.234375,-0.203125 -0.15625,0 -0.1875,0.0625 -0.234375,0.203125 L 1.4375,-0.984375 C 1.25,-0.46875 0.859375,-0.3125 0.3125,-0.3125 l 0,0.3125 c 0.234375,-0.015625 0.671875,-0.03125 1.015625,-0.03125 0.3125,0 0.828125,0.015625 1.15625,0.03125 l 0,-0.3125 c -0.5,0 -0.75,-0.25 -0.75,-0.5 0,-0.03125 0.015625,-0.140625 0.015625,-0.15625 l 0.46875,-1.296875 2.453125,0 0.53125,1.515625 c 0.015625,0.046875 0.03125,0.109375 0.03125,0.140625 0,0.296875 -0.5625,0.296875 -0.828125,0.296875 l 0,0.3125 c 0.359375,-0.03125 1.0625,-0.03125 1.4375,-0.03125 0.421875,0 0.890625,0.015625 1.296875,0.03125 l 0,-0.3125 -0.171875,0 C 6.375,-0.3125 6.234375,-0.375 6.125,-0.703125 z m -0.53125,1.109375 1.125,3.25 -2.234375,0 z"
               style="stroke:none"
               inkscape:connector-curvature="0" />
          </symbol>
        </g>
      </defs>
      <g
         id="textext-00640738-2">
        <g
           id="g4244"
           style="fill:#000000;fill-opacity:1">
          <use
             id="use4246"
             y="9.9630003"
             x="0"
             xlink:href="#textext-00640738-1"
             width="744.09448"
             height="1052.3622" />
        </g>
      </g>
    </g>
  </g>
</svg>
