<?xml version="1.0" encoding="UTF-8" standalone="no"?>
<!-- Created with Inkscape (http://www.inkscape.org/) -->

<svg
   xmlns:ns0="http://www.iki.fi/pav/software/textext/"
   xmlns:dc="http://purl.org/dc/elements/1.1/"
   xmlns:cc="http://creativecommons.org/ns#"
   xmlns:rdf="http://www.w3.org/1999/02/22-rdf-syntax-ns#"
   xmlns:svg="http://www.w3.org/2000/svg"
   xmlns="http://www.w3.org/2000/svg"
   xmlns:xlink="http://www.w3.org/1999/xlink"
   xmlns:sodipodi="http://sodipodi.sourceforge.net/DTD/sodipodi-0.dtd"
   xmlns:inkscape="http://www.inkscape.org/namespaces/inkscape"
   width="744.09448819"
   height="1052.3622047"
   id="svg4543"
   version="1.1"
   inkscape:version="0.48.3.1 r9886"
   sodipodi:docname="xsquared.svg">
  <sodipodi:namedview
     id="base"
     pagecolor="#ffffff"
     bordercolor="#ffffff"
     borderopacity="0.0"
     inkscape:pageopacity="0.0"
     inkscape:pageshadow="0"
     inkscape:zoom="0.32"
     inkscape:cx="-19.640553"
     inkscape:cy="796.26776"
     inkscape:document-units="px"
     inkscape:current-layer="layer3"
     showgrid="false"
     inkscape:window-width="1600"
     inkscape:window-height="900"
     inkscape:window-x="0"
     inkscape:window-y="0"
     inkscape:window-maximized="0"
     inkscape:snap-grids="true">
    <inkscape:grid
       id="grid3072"
       type="xygrid" />
  </sodipodi:namedview>
  <defs
     id="defs4545" />
  <metadata
     id="metadata4548">
    <rdf:RDF>
      <cc:Work
         rdf:about="">
        <dc:format>image/svg+xml</dc:format>
        <dc:type
           rdf:resource="http://purl.org/dc/dcmitype/StillImage" />
        <dc:title></dc:title>
      </cc:Work>
    </rdf:RDF>
  </metadata>
  <g
     inkscape:groupmode="layer"
     id="layer2"
     inkscape:label="grid"
     style="opacity:0.2"
     sodipodi:insensitive="true">
    <g
       id="g10529"
       transform="translate(-680,-867.63782)"
       inkscape:label="Grid_Polar:X20:Y20">
      <g
         id="g10531"
         inkscape:label="MajorXGridlines">
        <path
           inkscape:connector-curvature="0"
           id="path10533"
           d="m 100,0 0,2000"
           style="fill:none;stroke:#000000;stroke-width:2"
           inkscape:label="MajorXDiv1" />
        <path
           inkscape:connector-curvature="0"
           id="path10535"
           d="m 200,0 0,2000"
           style="fill:none;stroke:#000000;stroke-width:2"
           inkscape:label="MajorXDiv2" />
        <path
           inkscape:connector-curvature="0"
           id="path10537"
           d="m 300,0 0,2000"
           style="fill:none;stroke:#000000;stroke-width:2"
           inkscape:label="MajorXDiv3" />
        <path
           inkscape:connector-curvature="0"
           id="path10539"
           d="m 400,0 0,2000"
           style="fill:none;stroke:#000000;stroke-width:2"
           inkscape:label="MajorXDiv4" />
        <path
           inkscape:connector-curvature="0"
           id="path10541"
           d="m 500,0 0,2000"
           style="fill:none;stroke:#000000;stroke-width:2"
           inkscape:label="MajorXDiv5" />
        <path
           inkscape:connector-curvature="0"
           id="path10543"
           d="m 600,0 0,2000"
           style="fill:none;stroke:#000000;stroke-width:2"
           inkscape:label="MajorXDiv6" />
        <path
           inkscape:connector-curvature="0"
           id="path10545"
           d="m 700,0 0,2000"
           style="fill:none;stroke:#000000;stroke-width:2"
           inkscape:label="MajorXDiv7" />
        <path
           inkscape:connector-curvature="0"
           id="path10547"
           d="m 800,0 0,2000"
           style="fill:none;stroke:#000000;stroke-width:2"
           inkscape:label="MajorXDiv8" />
        <path
           inkscape:connector-curvature="0"
           id="path10549"
           d="m 900,0 0,2000"
           style="fill:none;stroke:#000000;stroke-width:2"
           inkscape:label="MajorXDiv9" />
        <path
           inkscape:connector-curvature="0"
           id="path10551"
           d="m 1000,0 0,2000"
           style="fill:none;stroke:#000000;stroke-width:2"
           inkscape:label="MajorXDiv10" />
        <path
           inkscape:connector-curvature="0"
           id="path10553"
           d="m 1100,0 0,2000"
           style="fill:none;stroke:#000000;stroke-width:2"
           inkscape:label="MajorXDiv11" />
        <path
           inkscape:connector-curvature="0"
           id="path10555"
           d="m 1200,0 0,2000"
           style="fill:none;stroke:#000000;stroke-width:2"
           inkscape:label="MajorXDiv12" />
        <path
           inkscape:connector-curvature="0"
           id="path10557"
           d="m 1300,0 0,2000"
           style="fill:none;stroke:#000000;stroke-width:2"
           inkscape:label="MajorXDiv13" />
        <path
           inkscape:connector-curvature="0"
           id="path10559"
           d="m 1400,0 0,2000"
           style="fill:none;stroke:#000000;stroke-width:2"
           inkscape:label="MajorXDiv14" />
        <path
           inkscape:connector-curvature="0"
           id="path10561"
           d="m 1500,0 0,2000"
           style="fill:none;stroke:#000000;stroke-width:2"
           inkscape:label="MajorXDiv15" />
        <path
           inkscape:connector-curvature="0"
           id="path10563"
           d="m 1600,0 0,2000"
           style="fill:none;stroke:#000000;stroke-width:2"
           inkscape:label="MajorXDiv16" />
        <path
           inkscape:connector-curvature="0"
           id="path10565"
           d="m 1700,0 0,2000"
           style="fill:none;stroke:#000000;stroke-width:2"
           inkscape:label="MajorXDiv17" />
        <path
           inkscape:connector-curvature="0"
           id="path10567"
           d="m 1800,0 0,2000"
           style="fill:none;stroke:#000000;stroke-width:2"
           inkscape:label="MajorXDiv18" />
        <path
           inkscape:connector-curvature="0"
           id="path10569"
           d="m 1900,0 0,2000"
           style="fill:none;stroke:#000000;stroke-width:2"
           inkscape:label="MajorXDiv19" />
      </g>
      <g
         id="g10571"
         inkscape:label="MajorYGridlines">
        <path
           inkscape:connector-curvature="0"
           id="path10573"
           d="m 0,100 2000,0"
           style="fill:none;stroke:#000000;stroke-width:2"
           inkscape:label="MajorYDiv1" />
        <path
           inkscape:connector-curvature="0"
           id="path10575"
           d="m 0,200 2000,0"
           style="fill:none;stroke:#000000;stroke-width:2"
           inkscape:label="MajorYDiv2" />
        <path
           inkscape:connector-curvature="0"
           id="path10577"
           d="m 0,300 2000,0"
           style="fill:none;stroke:#000000;stroke-width:2"
           inkscape:label="MajorYDiv3" />
        <path
           inkscape:connector-curvature="0"
           id="path10579"
           d="m 0,400 2000,0"
           style="fill:none;stroke:#000000;stroke-width:2"
           inkscape:label="MajorYDiv4" />
        <path
           inkscape:connector-curvature="0"
           id="path10581"
           d="m 0,500 2000,0"
           style="fill:none;stroke:#000000;stroke-width:2"
           inkscape:label="MajorYDiv5" />
        <path
           inkscape:connector-curvature="0"
           id="path10583"
           d="m 0,600 2000,0"
           style="fill:none;stroke:#000000;stroke-width:2"
           inkscape:label="MajorYDiv6" />
        <path
           inkscape:connector-curvature="0"
           id="path10585"
           d="m 0,700 2000,0"
           style="fill:none;stroke:#000000;stroke-width:2"
           inkscape:label="MajorYDiv7" />
        <path
           inkscape:connector-curvature="0"
           id="path10587"
           d="m 0,800 2000,0"
           style="fill:none;stroke:#000000;stroke-width:2"
           inkscape:label="MajorYDiv8" />
        <path
           inkscape:connector-curvature="0"
           id="path10589"
           d="m 0,900 2000,0"
           style="fill:none;stroke:#000000;stroke-width:2"
           inkscape:label="MajorYDiv9" />
        <path
           inkscape:connector-curvature="0"
           id="path10591"
           d="m 0,1000 2000,0"
           style="fill:none;stroke:#000000;stroke-width:2"
           inkscape:label="MajorYDiv10" />
        <path
           inkscape:connector-curvature="0"
           id="path10593"
           d="m 0,1100 2000,0"
           style="fill:none;stroke:#000000;stroke-width:2"
           inkscape:label="MajorYDiv11" />
        <path
           inkscape:connector-curvature="0"
           id="path10595"
           d="m 0,1200 2000,0"
           style="fill:none;stroke:#000000;stroke-width:2"
           inkscape:label="MajorYDiv12" />
        <path
           inkscape:connector-curvature="0"
           id="path10597"
           d="m 0,1300 2000,0"
           style="fill:none;stroke:#000000;stroke-width:2"
           inkscape:label="MajorYDiv13" />
        <path
           inkscape:connector-curvature="0"
           id="path10599"
           d="m 0,1400 2000,0"
           style="fill:none;stroke:#000000;stroke-width:2"
           inkscape:label="MajorYDiv14" />
        <path
           inkscape:connector-curvature="0"
           id="path10601"
           d="m 0,1500 2000,0"
           style="fill:none;stroke:#000000;stroke-width:2"
           inkscape:label="MajorYDiv15" />
        <path
           inkscape:connector-curvature="0"
           id="path10603"
           d="m 0,1600 2000,0"
           style="fill:none;stroke:#000000;stroke-width:2"
           inkscape:label="MajorYDiv16" />
        <path
           inkscape:connector-curvature="0"
           id="path10605"
           d="m 0,1700 2000,0"
           style="fill:none;stroke:#000000;stroke-width:2"
           inkscape:label="MajorYDiv17" />
        <path
           inkscape:connector-curvature="0"
           id="path10607"
           d="m 0,1800 2000,0"
           style="fill:none;stroke:#000000;stroke-width:2"
           inkscape:label="MajorYDiv18" />
        <path
           inkscape:connector-curvature="0"
           id="path10609"
           d="m 0,1900 2000,0"
           style="fill:none;stroke:#000000;stroke-width:2"
           inkscape:label="MajorYDiv19" />
      </g>
      <rect
         id="rect10611"
         x="0"
         y="0"
         inkscape:label="Border"
         height="2000"
         width="2000"
         style="fill:none;stroke:#000000;stroke-width:0" />
    </g>
  </g>
  <g
     id="layer1"
     inkscape:groupmode="layer"
     inkscape:label="Axes"
     sodipodi:insensitive="true">
    <g
       transform="translate(-17.19194,33.673153)"
       id="g3074">
      <path
         style="fill:none;stroke:#000000;stroke-width:1px;stroke-linecap:butt;stroke-linejoin:miter;stroke-opacity:1"
         d="m -702.80806,98.68903 2089.47746,0 -6.7492,0 7.7756,4.48921"
         id="path4570"
         inkscape:connector-curvature="0" />
      <path
         style="fill:none;stroke:#000000;stroke-width:1px;stroke-linecap:butt;stroke-linejoin:miter;stroke-opacity:1"
         d="m 340.19926,1146.1856 0,-2089.47753 0,6.7492 4.48922,-7.7756"
         id="path4570-3"
         inkscape:connector-curvature="0" />
    </g>
    <flowRoot
       transform="translate(-2.84375,92.178759)"
       style="font-size:16px;font-style:italic;font-variant:normal;font-weight:500;font-stretch:normal;text-align:start;line-height:125%;letter-spacing:0px;word-spacing:0px;writing-mode:lr-tb;text-anchor:start;fill:#000000;fill-opacity:1;stroke:none;font-family:CMU Serif;-inkscape-font-specification:Sans Italic"
       id="flowRoot3037"
       xml:space="preserve"><flowRegion
         id="flowRegion3039"><rect
           y="-1100.4694"
           x="322.83875"
           height="231.74149"
           width="212.70068"
           id="rect3041" /></flowRegion><flowPara
         style="font-size:72px"
         id="flowPara3043">y</flowPara></flowRoot>    <flowRoot
       transform="translate(1077.1563,1172.1788)"
       style="font-size:16px;font-style:italic;font-variant:normal;font-weight:500;font-stretch:normal;text-align:start;line-height:125%;letter-spacing:0px;word-spacing:0px;writing-mode:lr-tb;text-anchor:start;fill:#000000;fill-opacity:1;stroke:none;font-family:CMU Serif;-inkscape-font-specification:Sans Italic"
       id="flowRoot3037-6"
       xml:space="preserve"><flowRegion
         id="flowRegion3039-6"><rect
           y="-1100.4694"
           x="322.83875"
           height="231.74149"
           width="212.70068"
           id="rect3041-3" /></flowRegion><flowPara
         style="font-size:72px"
         id="flowPara3043-7">x</flowPara></flowRoot>  </g>
  <g
     inkscape:groupmode="layer"
     id="layer3"
     inkscape:label="Content">
    <path
       style="fill:none;stroke:#009100;stroke-width:4;stroke-linecap:butt;stroke-linejoin:miter;stroke-opacity:1;stroke-miterlimit:4;stroke-dasharray:none"
       d="M 1220.2643,-769.95301 C 609.8822,455.15881 11.027323,400.74973 -577.80726,-765.9124 l 0,0"
       id="path3265"
       inkscape:connector-curvature="0"
       sodipodi:nodetypes="ccc" />
    <path
       style="fill:none;stroke:#ba00ff;stroke-width:6;stroke-linecap:butt;stroke-linejoin:miter;stroke-opacity:1;stroke-miterlimit:4;stroke-dasharray:none"
       d="M 775.79715,-765.9124 -129.29953,1032.1591"
       id="path4035"
       inkscape:connector-curvature="0" />
    <g
       transform="matrix(8.9949401,0,0,8.9949401,-6.3063399,884.41504)"
       ns0:text="$f\'(x)=2x$"
       ns0:preamble=""
       ns0:page_width="10in"
       style="stroke-width:0.0000001"
       id="g4184">
      <defs
         id="defs4186">
        <g
           id="g4188">
          <symbol
             style="overflow:visible"
             overflow="visible"
             id="textext-e89233ae-0">
            <path
               inkscape:connector-curvature="0"
               style="stroke:none"
               d=""
               id="path4191" />
          </symbol>
          <symbol
             style="overflow:visible"
             overflow="visible"
             id="textext-e89233ae-1">
            <path
               inkscape:connector-curvature="0"
               style="stroke:none"
               d="m 3.65625,-3.984375 0.859375,0 c 0.203125,0 0.296875,0 0.296875,-0.203125 0,-0.109375 -0.09375,-0.109375 -0.265625,-0.109375 l -0.828125,0 0.203125,-1.140625 c 0.046875,-0.203125 0.1875,-0.90625 0.25,-1.03125 0.078125,-0.1875 0.25,-0.34375 0.46875,-0.34375 0.03125,0 0.296875,0 0.484375,0.1875 -0.4375,0.03125 -0.546875,0.390625 -0.546875,0.53125 0,0.234375 0.1875,0.359375 0.375,0.359375 C 5.21875,-5.734375 5.5,-5.96875 5.5,-6.34375 c 0,-0.453125 -0.453125,-0.6875 -0.859375,-0.6875 -0.34375,0 -0.96875,0.1875 -1.265625,1.171875 -0.0625,0.203125 -0.09375,0.3125 -0.328125,1.5625 l -0.6875,0 c -0.203125,0 -0.3125,0 -0.3125,0.1875 0,0.125 0.09375,0.125 0.28125,0.125 l 0.65625,0 -0.734375,3.9375 c -0.1875,0.96875 -0.359375,1.875 -0.875,1.875 -0.046875,0 -0.28125,0 -0.484375,-0.1875 C 1.359375,1.609375 1.453125,1.25 1.453125,1.109375 1.453125,0.875 1.265625,0.75 1.078125,0.75 0.8125,0.75 0.53125,0.984375 0.53125,1.359375 c 0,0.4375 0.4375,0.6875 0.84375,0.6875 0.546875,0 0.953125,-0.59375 1.125,-0.96875 0.328125,-0.625 0.546875,-1.828125 0.5625,-1.90625 z"
               id="path4194" />
          </symbol>
          <symbol
             style="overflow:visible"
             overflow="visible"
             id="textext-e89233ae-2">
            <path
               inkscape:connector-curvature="0"
               style="stroke:none"
               d="M 3.328125,-3.015625 C 3.390625,-3.265625 3.625,-4.1875 4.3125,-4.1875 c 0.046875,0 0.296875,0 0.5,0.125 C 4.53125,-4 4.34375,-3.765625 4.34375,-3.515625 c 0,0.15625 0.109375,0.34375 0.375,0.34375 0.21875,0 0.53125,-0.171875 0.53125,-0.578125 0,-0.515625 -0.578125,-0.65625 -0.921875,-0.65625 -0.578125,0 -0.921875,0.53125 -1.046875,0.75 -0.25,-0.65625 -0.78125,-0.75 -1.078125,-0.75 -1.03125,0 -1.609375,1.28125 -1.609375,1.53125 0,0.109375 0.109375,0.109375 0.125,0.109375 0.078125,0 0.109375,-0.03125 0.125,-0.109375 0.34375,-1.0625 1,-1.3125 1.34375,-1.3125 0.1875,0 0.53125,0.09375 0.53125,0.671875 0,0.3125 -0.171875,0.96875 -0.53125,2.375 -0.15625,0.609375 -0.515625,1.03125 -0.953125,1.03125 -0.0625,0 -0.28125,0 -0.5,-0.125 0.25,-0.0625 0.46875,-0.265625 0.46875,-0.546875 0,-0.265625 -0.21875,-0.34375 -0.359375,-0.34375 -0.3125,0 -0.546875,0.25 -0.546875,0.578125 0,0.453125 0.484375,0.65625 0.921875,0.65625 0.671875,0 1.03125,-0.703125 1.046875,-0.75 0.125,0.359375 0.484375,0.75 1.078125,0.75 1.03125,0 1.59375,-1.28125 1.59375,-1.53125 0,-0.109375 -0.078125,-0.109375 -0.109375,-0.109375 -0.09375,0 -0.109375,0.046875 -0.140625,0.109375 -0.328125,1.078125 -1,1.3125 -1.3125,1.3125 -0.390625,0 -0.546875,-0.3125 -0.546875,-0.65625 0,-0.21875 0.046875,-0.4375 0.15625,-0.875 z"
               id="path4197" />
          </symbol>
          <symbol
             style="overflow:visible"
             overflow="visible"
             id="textext-e89233ae-3">
            <path
               inkscape:connector-curvature="0"
               style="stroke:none"
               d=""
               id="path4200" />
          </symbol>
          <symbol
             style="overflow:visible"
             overflow="visible"
             id="textext-e89233ae-4">
            <path
               inkscape:connector-curvature="0"
               style="stroke:none"
               d="m 2.015625,-3.296875 c 0.0625,-0.109375 0.0625,-0.171875 0.0625,-0.21875 0,-0.21875 -0.1875,-0.375 -0.40625,-0.375 -0.265625,0 -0.34375,0.21875 -0.375,0.328125 L 0.375,-0.546875 c -0.015625,0.015625 -0.046875,0.09375 -0.046875,0.109375 0,0.078125 0.21875,0.15625 0.28125,0.15625 0.046875,0 0.046875,-0.015625 0.09375,-0.125 z"
               id="path4203" />
          </symbol>
          <symbol
             style="overflow:visible"
             overflow="visible"
             id="textext-e89233ae-5">
            <path
               inkscape:connector-curvature="0"
               style="stroke:none"
               d=""
               id="path4206" />
          </symbol>
          <symbol
             style="overflow:visible"
             overflow="visible"
             id="textext-e89233ae-6">
            <path
               inkscape:connector-curvature="0"
               style="stroke:none"
               d="m 3.296875,2.390625 c 0,-0.03125 0,-0.046875 -0.171875,-0.21875 C 1.890625,0.921875 1.5625,-0.96875 1.5625,-2.5 c 0,-1.734375 0.375,-3.46875 1.609375,-4.703125 0.125,-0.125 0.125,-0.140625 0.125,-0.171875 0,-0.078125 -0.03125,-0.109375 -0.09375,-0.109375 -0.109375,0 -1,0.6875 -1.59375,1.953125 -0.5,1.09375 -0.625,2.203125 -0.625,3.03125 0,0.78125 0.109375,1.984375 0.65625,3.125 C 2.25,1.84375 3.09375,2.5 3.203125,2.5 c 0.0625,0 0.09375,-0.03125 0.09375,-0.109375 z"
               id="path4209" />
          </symbol>
          <symbol
             style="overflow:visible"
             overflow="visible"
             id="textext-e89233ae-7">
            <path
               inkscape:connector-curvature="0"
               style="stroke:none"
               d="m 2.875,-2.5 c 0,-0.765625 -0.109375,-1.96875 -0.65625,-3.109375 -0.59375,-1.21875 -1.453125,-1.875 -1.546875,-1.875 -0.0625,0 -0.109375,0.046875 -0.109375,0.109375 0,0.03125 0,0.046875 0.1875,0.234375 0.984375,0.984375 1.546875,2.5625 1.546875,4.640625 0,1.71875 -0.359375,3.46875 -1.59375,4.71875 C 0.5625,2.34375 0.5625,2.359375 0.5625,2.390625 0.5625,2.453125 0.609375,2.5 0.671875,2.5 0.765625,2.5 1.671875,1.8125 2.25,0.546875 2.765625,-0.546875 2.875,-1.65625 2.875,-2.5 z"
               id="path4212" />
          </symbol>
          <symbol
             style="overflow:visible"
             overflow="visible"
             id="textext-e89233ae-8">
            <path
               inkscape:connector-curvature="0"
               style="stroke:none"
               d="m 6.84375,-3.265625 c 0.15625,0 0.34375,0 0.34375,-0.1875 C 7.1875,-3.65625 7,-3.65625 6.859375,-3.65625 l -5.96875,0 c -0.140625,0 -0.328125,0 -0.328125,0.203125 0,0.1875 0.1875,0.1875 0.328125,0.1875 z m 0.015625,1.9375 c 0.140625,0 0.328125,0 0.328125,-0.203125 0,-0.1875 -0.1875,-0.1875 -0.34375,-0.1875 l -5.953125,0 c -0.140625,0 -0.328125,0 -0.328125,0.1875 0,0.203125 0.1875,0.203125 0.328125,0.203125 z"
               id="path4215" />
          </symbol>
          <symbol
             style="overflow:visible"
             overflow="visible"
             id="textext-e89233ae-9">
            <path
               inkscape:connector-curvature="0"
               style="stroke:none"
               d="m 1.265625,-0.765625 1.0625,-1.03125 c 1.546875,-1.375 2.140625,-1.90625 2.140625,-2.90625 0,-1.140625 -0.890625,-1.9375 -2.109375,-1.9375 -1.125,0 -1.859375,0.921875 -1.859375,1.8125 0,0.546875 0.5,0.546875 0.53125,0.546875 0.171875,0 0.515625,-0.109375 0.515625,-0.53125 0,-0.25 -0.1875,-0.515625 -0.53125,-0.515625 -0.078125,0 -0.09375,0 -0.125,0.015625 0.21875,-0.65625 0.765625,-1.015625 1.34375,-1.015625 0.90625,0 1.328125,0.8125 1.328125,1.625 C 3.5625,-3.90625 3.078125,-3.125 2.515625,-2.5 l -1.90625,2.125 C 0.5,-0.265625 0.5,-0.234375 0.5,0 l 3.703125,0 0.265625,-1.734375 -0.234375,0 C 4.171875,-1.4375 4.109375,-1 4,-0.84375 3.9375,-0.765625 3.28125,-0.765625 3.0625,-0.765625 z"
               id="path4218" />
          </symbol>
        </g>
      </defs>
      <g
         id="textext-e89233ae-10">
        <g
           style="fill:#000000;fill-opacity:1"
           id="g4221">
          <use
             height="1052.3622"
             width="744.09448"
             xlink:href="#textext-e89233ae-1"
             x="0"
             y="9.9630003"
             id="use4223" />
        </g>
        <g
           style="fill:#000000;fill-opacity:1"
           id="g4225">
          <use
             height="1052.3622"
             width="744.09448"
             xlink:href="#textext-e89233ae-4"
             x="5.9499998"
             y="6.348"
             id="use4227" />
        </g>
        <g
           style="fill:#000000;fill-opacity:1"
           id="g4229">
          <use
             height="1052.3622"
             width="744.09448"
             xlink:href="#textext-e89233ae-6"
             x="8.7449999"
             y="9.9630003"
             id="use4231" />
        </g>
        <g
           style="fill:#000000;fill-opacity:1"
           id="g4233">
          <use
             height="1052.3622"
             width="744.09448"
             xlink:href="#textext-e89233ae-2"
             x="12.619"
             y="9.9630003"
             id="use4235" />
        </g>
        <g
           style="fill:#000000;fill-opacity:1"
           id="g4237">
          <use
             height="1052.3622"
             width="744.09448"
             xlink:href="#textext-e89233ae-7"
             x="18.313"
             y="9.9630003"
             id="use4239" />
        </g>
        <g
           style="fill:#000000;fill-opacity:1"
           id="g4241">
          <use
             height="1052.3622"
             width="744.09448"
             xlink:href="#textext-e89233ae-8"
             x="24.957058"
             y="9.9630003"
             id="use4243" />
        </g>
        <g
           style="fill:#000000;fill-opacity:1"
           id="g4245">
          <use
             height="1052.3622"
             width="744.09448"
             xlink:href="#textext-e89233ae-9"
             x="35.475571"
             y="9.9630003"
             id="use4247" />
        </g>
        <g
           style="fill:#000000;fill-opacity:1"
           id="g4249">
          <use
             height="1052.3622"
             width="744.09448"
             xlink:href="#textext-e89233ae-2"
             x="40.452"
             y="9.9630003"
             id="use4251" />
        </g>
      </g>
    </g>
  </g>
  <g
     id="g4679"
     style="stroke-width:0.0000001"
     ns0:page_width="6in"
     ns0:preamble=""
     ns0:text="$f(x)=x^2$"
     transform="matrix(8.3798881,0,0,8.3798881,-472.53775,-720.1098)">
    <defs
       id="defs4681">
      <g
         id="g4683">
        <symbol
           id="textext-441b582d-0"
           overflow="visible"
           style="overflow:visible">
          <path
             id="path4686"
             d=""
             style="stroke:none"
             inkscape:connector-curvature="0" />
        </symbol>
        <symbol
           id="textext-441b582d-1"
           overflow="visible"
           style="overflow:visible">
          <path
             id="path4689"
             d="m 3.65625,-3.984375 0.859375,0 c 0.203125,0 0.296875,0 0.296875,-0.203125 0,-0.109375 -0.09375,-0.109375 -0.265625,-0.109375 l -0.828125,0 0.203125,-1.140625 c 0.046875,-0.203125 0.1875,-0.90625 0.25,-1.03125 0.078125,-0.1875 0.25,-0.34375 0.46875,-0.34375 0.03125,0 0.296875,0 0.484375,0.1875 -0.4375,0.03125 -0.546875,0.390625 -0.546875,0.53125 0,0.234375 0.1875,0.359375 0.375,0.359375 C 5.21875,-5.734375 5.5,-5.96875 5.5,-6.34375 c 0,-0.453125 -0.453125,-0.6875 -0.859375,-0.6875 -0.34375,0 -0.96875,0.1875 -1.265625,1.171875 -0.0625,0.203125 -0.09375,0.3125 -0.328125,1.5625 l -0.6875,0 c -0.203125,0 -0.3125,0 -0.3125,0.1875 0,0.125 0.09375,0.125 0.28125,0.125 l 0.65625,0 -0.734375,3.9375 c -0.1875,0.96875 -0.359375,1.875 -0.875,1.875 -0.046875,0 -0.28125,0 -0.484375,-0.1875 C 1.359375,1.609375 1.453125,1.25 1.453125,1.109375 1.453125,0.875 1.265625,0.75 1.078125,0.75 0.8125,0.75 0.53125,0.984375 0.53125,1.359375 c 0,0.4375 0.4375,0.6875 0.84375,0.6875 0.546875,0 0.953125,-0.59375 1.125,-0.96875 0.328125,-0.625 0.546875,-1.828125 0.5625,-1.90625 z"
             style="stroke:none"
             inkscape:connector-curvature="0" />
        </symbol>
        <symbol
           id="textext-441b582d-2"
           overflow="visible"
           style="overflow:visible">
          <path
             id="path4692"
             d="M 3.328125,-3.015625 C 3.390625,-3.265625 3.625,-4.1875 4.3125,-4.1875 c 0.046875,0 0.296875,0 0.5,0.125 C 4.53125,-4 4.34375,-3.765625 4.34375,-3.515625 c 0,0.15625 0.109375,0.34375 0.375,0.34375 0.21875,0 0.53125,-0.171875 0.53125,-0.578125 0,-0.515625 -0.578125,-0.65625 -0.921875,-0.65625 -0.578125,0 -0.921875,0.53125 -1.046875,0.75 -0.25,-0.65625 -0.78125,-0.75 -1.078125,-0.75 -1.03125,0 -1.609375,1.28125 -1.609375,1.53125 0,0.109375 0.109375,0.109375 0.125,0.109375 0.078125,0 0.109375,-0.03125 0.125,-0.109375 0.34375,-1.0625 1,-1.3125 1.34375,-1.3125 0.1875,0 0.53125,0.09375 0.53125,0.671875 0,0.3125 -0.171875,0.96875 -0.53125,2.375 -0.15625,0.609375 -0.515625,1.03125 -0.953125,1.03125 -0.0625,0 -0.28125,0 -0.5,-0.125 0.25,-0.0625 0.46875,-0.265625 0.46875,-0.546875 0,-0.265625 -0.21875,-0.34375 -0.359375,-0.34375 -0.3125,0 -0.546875,0.25 -0.546875,0.578125 0,0.453125 0.484375,0.65625 0.921875,0.65625 0.671875,0 1.03125,-0.703125 1.046875,-0.75 0.125,0.359375 0.484375,0.75 1.078125,0.75 1.03125,0 1.59375,-1.28125 1.59375,-1.53125 0,-0.109375 -0.078125,-0.109375 -0.109375,-0.109375 -0.09375,0 -0.109375,0.046875 -0.140625,0.109375 -0.328125,1.078125 -1,1.3125 -1.3125,1.3125 -0.390625,0 -0.546875,-0.3125 -0.546875,-0.65625 0,-0.21875 0.046875,-0.4375 0.15625,-0.875 z"
             style="stroke:none"
             inkscape:connector-curvature="0" />
        </symbol>
        <symbol
           id="textext-441b582d-3"
           overflow="visible"
           style="overflow:visible">
          <path
             id="path4695"
             d=""
             style="stroke:none"
             inkscape:connector-curvature="0" />
        </symbol>
        <symbol
           id="textext-441b582d-4"
           overflow="visible"
           style="overflow:visible">
          <path
             id="path4698"
             d="m 3.296875,2.390625 c 0,-0.03125 0,-0.046875 -0.171875,-0.21875 C 1.890625,0.921875 1.5625,-0.96875 1.5625,-2.5 c 0,-1.734375 0.375,-3.46875 1.609375,-4.703125 0.125,-0.125 0.125,-0.140625 0.125,-0.171875 0,-0.078125 -0.03125,-0.109375 -0.09375,-0.109375 -0.109375,0 -1,0.6875 -1.59375,1.953125 -0.5,1.09375 -0.625,2.203125 -0.625,3.03125 0,0.78125 0.109375,1.984375 0.65625,3.125 C 2.25,1.84375 3.09375,2.5 3.203125,2.5 c 0.0625,0 0.09375,-0.03125 0.09375,-0.109375 z"
             style="stroke:none"
             inkscape:connector-curvature="0" />
        </symbol>
        <symbol
           id="textext-441b582d-5"
           overflow="visible"
           style="overflow:visible">
          <path
             id="path4701"
             d="m 2.875,-2.5 c 0,-0.765625 -0.109375,-1.96875 -0.65625,-3.109375 -0.59375,-1.21875 -1.453125,-1.875 -1.546875,-1.875 -0.0625,0 -0.109375,0.046875 -0.109375,0.109375 0,0.03125 0,0.046875 0.1875,0.234375 0.984375,0.984375 1.546875,2.5625 1.546875,4.640625 0,1.71875 -0.359375,3.46875 -1.59375,4.71875 C 0.5625,2.34375 0.5625,2.359375 0.5625,2.390625 0.5625,2.453125 0.609375,2.5 0.671875,2.5 0.765625,2.5 1.671875,1.8125 2.25,0.546875 2.765625,-0.546875 2.875,-1.65625 2.875,-2.5 z"
             style="stroke:none"
             inkscape:connector-curvature="0" />
        </symbol>
        <symbol
           id="textext-441b582d-6"
           overflow="visible"
           style="overflow:visible">
          <path
             id="path4704"
             d="m 6.84375,-3.265625 c 0.15625,0 0.34375,0 0.34375,-0.1875 C 7.1875,-3.65625 7,-3.65625 6.859375,-3.65625 l -5.96875,0 c -0.140625,0 -0.328125,0 -0.328125,0.203125 0,0.1875 0.1875,0.1875 0.328125,0.1875 z m 0.015625,1.9375 c 0.140625,0 0.328125,0 0.328125,-0.203125 0,-0.1875 -0.1875,-0.1875 -0.34375,-0.1875 l -5.953125,0 c -0.140625,0 -0.328125,0 -0.328125,0.1875 0,0.203125 0.1875,0.203125 0.328125,0.203125 z"
             style="stroke:none"
             inkscape:connector-curvature="0" />
        </symbol>
        <symbol
           id="textext-441b582d-7"
           overflow="visible"
           style="overflow:visible">
          <path
             id="path4707"
             d=""
             style="stroke:none"
             inkscape:connector-curvature="0" />
        </symbol>
        <symbol
           id="textext-441b582d-8"
           overflow="visible"
           style="overflow:visible">
          <path
             id="path4710"
             d="m 3.515625,-1.265625 -0.234375,0 c -0.015625,0.15625 -0.09375,0.5625 -0.1875,0.625 -0.046875,0.046875 -0.578125,0.046875 -0.6875,0.046875 l -1.28125,0 c 0.734375,-0.640625 0.984375,-0.84375 1.390625,-1.171875 0.515625,-0.40625 1,-0.84375 1,-1.5 0,-0.84375 -0.734375,-1.359375 -1.625,-1.359375 -0.859375,0 -1.453125,0.609375 -1.453125,1.25 0,0.34375 0.296875,0.390625 0.375,0.390625 0.15625,0 0.359375,-0.125 0.359375,-0.375 0,-0.125 -0.046875,-0.375 -0.40625,-0.375 C 0.984375,-4.21875 1.453125,-4.375 1.78125,-4.375 c 0.703125,0 1.0625,0.546875 1.0625,1.109375 0,0.609375 -0.4375,1.078125 -0.65625,1.328125 L 0.515625,-0.265625 C 0.4375,-0.203125 0.4375,-0.1875 0.4375,0 l 2.875,0 z"
             style="stroke:none"
             inkscape:connector-curvature="0" />
        </symbol>
      </g>
    </defs>
    <g
       id="textext-441b582d-9">
      <g
         id="g4713"
         style="fill:#000000;fill-opacity:1">
        <use
           id="use4715"
           y="9.9630003"
           x="0"
           xlink:href="#textext-441b582d-1"
           width="744.09448"
           height="1052.3622" />
      </g>
      <g
         id="g4717"
         style="fill:#000000;fill-opacity:1">
        <use
           id="use4719"
           y="9.9630003"
           x="5.9499998"
           xlink:href="#textext-441b582d-4"
           width="744.09448"
           height="1052.3622" />
      </g>
      <g
         id="g4721"
         style="fill:#000000;fill-opacity:1">
        <use
           id="use4723"
           y="9.9630003"
           x="9.8240004"
           xlink:href="#textext-441b582d-2"
           width="744.09448"
           height="1052.3622" />
      </g>
      <g
         id="g4725"
         style="fill:#000000;fill-opacity:1">
        <use
           id="use4727"
           y="9.9630003"
           x="15.518"
           xlink:href="#textext-441b582d-5"
           width="744.09448"
           height="1052.3622" />
      </g>
      <g
         id="g4729"
         style="fill:#000000;fill-opacity:1">
        <use
           id="use4731"
           y="9.9630003"
           x="22.162058"
           xlink:href="#textext-441b582d-6"
           width="744.09448"
           height="1052.3622" />
      </g>
      <g
         id="g4733"
         style="fill:#000000;fill-opacity:1">
        <use
           id="use4735"
           y="9.9630003"
           x="32.675999"
           xlink:href="#textext-441b582d-2"
           width="744.09448"
           height="1052.3622" />
      </g>
      <g
         id="g4737"
         style="fill:#000000;fill-opacity:1">
        <use
           id="use4739"
           y="6.348"
           x="38.369999"
           xlink:href="#textext-441b582d-8"
           width="744.09448"
           height="1052.3622" />
      </g>
    </g>
  </g>
</svg>
