<?xml version="1.0" encoding="UTF-8" standalone="no"?>
<!-- Created with Inkscape (http://www.inkscape.org/) -->

<svg
   xmlns:ns0="http://www.iki.fi/pav/software/textext/"
   xmlns:dc="http://purl.org/dc/elements/1.1/"
   xmlns:cc="http://creativecommons.org/ns#"
   xmlns:rdf="http://www.w3.org/1999/02/22-rdf-syntax-ns#"
   xmlns:svg="http://www.w3.org/2000/svg"
   xmlns="http://www.w3.org/2000/svg"
   xmlns:xlink="http://www.w3.org/1999/xlink"
   xmlns:sodipodi="http://sodipodi.sourceforge.net/DTD/sodipodi-0.dtd"
   xmlns:inkscape="http://www.inkscape.org/namespaces/inkscape"
   sodipodi:docname="rei1.svg"
   inkscape:version="0.48.3.1 r9886"
   version="1.1"
   id="svg4543"
   height="1052.3622047"
   width="744.09448819">
  <sodipodi:namedview
     id="base"
     pagecolor="#ffffff"
     bordercolor="#ffffff"
     borderopacity="0.0"
     inkscape:pageopacity="0.0"
     inkscape:pageshadow="0"
     inkscape:zoom="0.32"
     inkscape:cx="616.98136"
     inkscape:cy="648.34892"
     inkscape:document-units="px"
     inkscape:current-layer="layer4"
     showgrid="false"
     inkscape:window-width="1600"
     inkscape:window-height="839"
     inkscape:window-x="0"
     inkscape:window-y="0"
     inkscape:window-maximized="1"
     inkscape:snap-grids="true"
     inkscape:snap-bbox="true"
     inkscape:bbox-nodes="true">
    <inkscape:grid
       snapvisiblegridlinesonly="true"
       enabled="true"
       visible="true"
       empspacing="5"
       type="xygrid"
       id="grid3072" />
  </sodipodi:namedview>
  <defs
     id="defs4545" />
  <metadata
     id="metadata4548">
    <rdf:RDF>
      <cc:Work
         rdf:about="">
        <dc:format>image/svg+xml</dc:format>
        <dc:type
           rdf:resource="http://purl.org/dc/dcmitype/StillImage" />
        <dc:title></dc:title>
      </cc:Work>
    </rdf:RDF>
  </metadata>
  <g
     sodipodi:insensitive="true"
     style="display:none"
     inkscape:label="grid"
     id="layer2"
     inkscape:groupmode="layer">
    <g
       style="opacity:0.3;stroke:#2d2d2d;stroke-width:3.61086297;stroke-miterlimit:4;stroke-dasharray:none"
       inkscape:label="Grid_Polar:X20:Y20"
       transform="matrix(1.0385329,0,0,1.0385329,-715.2499,-905.91818)"
       id="g10529">
      <g
         style="stroke:#2d2d2d;stroke-width:3.61086297;stroke-miterlimit:4;stroke-dasharray:none"
         inkscape:label="MajorXGridlines"
         id="g10531">
        <path
           inkscape:label="MajorXDiv1"
           style="fill:none;stroke:#2d2d2d;stroke-width:3.61086297;stroke-miterlimit:4;stroke-dasharray:none"
           d="m 100,0 0,2000"
           id="path10533"
           inkscape:connector-curvature="0" />
        <path
           inkscape:label="MajorXDiv2"
           style="fill:none;stroke:#2d2d2d;stroke-width:3.61086297;stroke-miterlimit:4;stroke-dasharray:none"
           d="m 200,0 0,2000"
           id="path10535"
           inkscape:connector-curvature="0" />
        <path
           inkscape:label="MajorXDiv3"
           style="fill:none;stroke:#2d2d2d;stroke-width:3.61086297;stroke-miterlimit:4;stroke-dasharray:none"
           d="m 300,0 0,2000"
           id="path10537"
           inkscape:connector-curvature="0" />
        <path
           inkscape:label="MajorXDiv4"
           style="fill:none;stroke:#2d2d2d;stroke-width:3.61086297;stroke-miterlimit:4;stroke-dasharray:none"
           d="m 400,0 0,2000"
           id="path10539"
           inkscape:connector-curvature="0" />
        <path
           inkscape:label="MajorXDiv5"
           style="fill:none;stroke:#2d2d2d;stroke-width:3.61086297;stroke-miterlimit:4;stroke-dasharray:none"
           d="m 500,0 0,2000"
           id="path10541"
           inkscape:connector-curvature="0" />
        <path
           inkscape:label="MajorXDiv6"
           style="fill:none;stroke:#2d2d2d;stroke-width:3.61086297;stroke-miterlimit:4;stroke-dasharray:none"
           d="m 600,0 0,2000"
           id="path10543"
           inkscape:connector-curvature="0" />
        <path
           inkscape:label="MajorXDiv7"
           style="fill:none;stroke:#2d2d2d;stroke-width:3.61086297;stroke-miterlimit:4;stroke-dasharray:none"
           d="m 700,0 0,2000"
           id="path10545"
           inkscape:connector-curvature="0" />
        <path
           inkscape:label="MajorXDiv8"
           style="fill:none;stroke:#2d2d2d;stroke-width:3.61086297;stroke-miterlimit:4;stroke-dasharray:none"
           d="m 800,0 0,2000"
           id="path10547"
           inkscape:connector-curvature="0" />
        <path
           inkscape:label="MajorXDiv9"
           style="fill:none;stroke:#2d2d2d;stroke-width:3.61086297;stroke-miterlimit:4;stroke-dasharray:none"
           d="m 900,0 0,2000"
           id="path10549"
           inkscape:connector-curvature="0" />
        <path
           inkscape:label="MajorXDiv10"
           style="fill:none;stroke:#2d2d2d;stroke-width:3.61086297;stroke-miterlimit:4;stroke-dasharray:none"
           d="m 1000,0 0,2000"
           id="path10551"
           inkscape:connector-curvature="0" />
        <path
           inkscape:label="MajorXDiv11"
           style="fill:none;stroke:#2d2d2d;stroke-width:3.61086297;stroke-miterlimit:4;stroke-dasharray:none"
           d="m 1100,0 0,2000"
           id="path10553"
           inkscape:connector-curvature="0" />
        <path
           inkscape:label="MajorXDiv12"
           style="fill:none;stroke:#2d2d2d;stroke-width:3.61086297;stroke-miterlimit:4;stroke-dasharray:none"
           d="m 1200,0 0,2000"
           id="path10555"
           inkscape:connector-curvature="0" />
        <path
           inkscape:label="MajorXDiv13"
           style="fill:none;stroke:#2d2d2d;stroke-width:3.61086297;stroke-miterlimit:4;stroke-dasharray:none"
           d="m 1300,0 0,2000"
           id="path10557"
           inkscape:connector-curvature="0" />
        <path
           inkscape:label="MajorXDiv14"
           style="fill:none;stroke:#2d2d2d;stroke-width:3.61086297;stroke-miterlimit:4;stroke-dasharray:none"
           d="m 1400,0 0,2000"
           id="path10559"
           inkscape:connector-curvature="0" />
        <path
           inkscape:label="MajorXDiv15"
           style="fill:none;stroke:#2d2d2d;stroke-width:3.61086297;stroke-miterlimit:4;stroke-dasharray:none"
           d="m 1500,0 0,2000"
           id="path10561"
           inkscape:connector-curvature="0" />
        <path
           inkscape:label="MajorXDiv16"
           style="fill:none;stroke:#2d2d2d;stroke-width:3.61086297;stroke-miterlimit:4;stroke-dasharray:none"
           d="m 1600,0 0,2000"
           id="path10563"
           inkscape:connector-curvature="0" />
        <path
           inkscape:label="MajorXDiv17"
           style="fill:none;stroke:#2d2d2d;stroke-width:3.61086297;stroke-miterlimit:4;stroke-dasharray:none"
           d="m 1700,0 0,2000"
           id="path10565"
           inkscape:connector-curvature="0" />
        <path
           inkscape:label="MajorXDiv18"
           style="fill:none;stroke:#2d2d2d;stroke-width:3.61086297;stroke-miterlimit:4;stroke-dasharray:none"
           d="m 1800,0 0,2000"
           id="path10567"
           inkscape:connector-curvature="0" />
        <path
           inkscape:label="MajorXDiv19"
           style="fill:none;stroke:#2d2d2d;stroke-width:3.61086297;stroke-miterlimit:4;stroke-dasharray:none"
           d="m 1900,0 0,2000"
           id="path10569"
           inkscape:connector-curvature="0" />
      </g>
      <g
         style="stroke:#2d2d2d;stroke-width:3.61086297;stroke-miterlimit:4;stroke-dasharray:none"
         inkscape:label="MajorYGridlines"
         id="g10571">
        <path
           inkscape:label="MajorYDiv1"
           style="fill:none;stroke:#2d2d2d;stroke-width:3.61086297;stroke-miterlimit:4;stroke-dasharray:none"
           d="m 0,100 2000,0"
           id="path10573"
           inkscape:connector-curvature="0" />
        <path
           inkscape:label="MajorYDiv2"
           style="fill:none;stroke:#2d2d2d;stroke-width:3.61086297;stroke-miterlimit:4;stroke-dasharray:none"
           d="m 0,200 2000,0"
           id="path10575"
           inkscape:connector-curvature="0" />
        <path
           inkscape:label="MajorYDiv3"
           style="fill:none;stroke:#2d2d2d;stroke-width:3.61086297;stroke-miterlimit:4;stroke-dasharray:none"
           d="m 0,300 2000,0"
           id="path10577"
           inkscape:connector-curvature="0" />
        <path
           inkscape:label="MajorYDiv4"
           style="fill:none;stroke:#2d2d2d;stroke-width:3.61086297;stroke-miterlimit:4;stroke-dasharray:none"
           d="m 0,400 2000,0"
           id="path10579"
           inkscape:connector-curvature="0" />
        <path
           inkscape:label="MajorYDiv5"
           style="fill:none;stroke:#2d2d2d;stroke-width:3.61086297;stroke-miterlimit:4;stroke-dasharray:none"
           d="m 0,500 2000,0"
           id="path10581"
           inkscape:connector-curvature="0" />
        <path
           inkscape:label="MajorYDiv6"
           style="fill:none;stroke:#2d2d2d;stroke-width:3.61086297;stroke-miterlimit:4;stroke-dasharray:none"
           d="m 0,600 2000,0"
           id="path10583"
           inkscape:connector-curvature="0" />
        <path
           inkscape:label="MajorYDiv7"
           style="fill:none;stroke:#2d2d2d;stroke-width:3.61086297;stroke-miterlimit:4;stroke-dasharray:none"
           d="m 0,700 2000,0"
           id="path10585"
           inkscape:connector-curvature="0" />
        <path
           inkscape:label="MajorYDiv8"
           style="fill:none;stroke:#2d2d2d;stroke-width:3.61086297;stroke-miterlimit:4;stroke-dasharray:none"
           d="m 0,800 2000,0"
           id="path10587"
           inkscape:connector-curvature="0" />
        <path
           inkscape:label="MajorYDiv9"
           style="fill:none;stroke:#2d2d2d;stroke-width:3.61086297;stroke-miterlimit:4;stroke-dasharray:none"
           d="m 0,900 2000,0"
           id="path10589"
           inkscape:connector-curvature="0" />
        <path
           inkscape:label="MajorYDiv10"
           style="fill:none;stroke:#2d2d2d;stroke-width:3.61086297;stroke-miterlimit:4;stroke-dasharray:none"
           d="m 0,1000 2000,0"
           id="path10591"
           inkscape:connector-curvature="0" />
        <path
           inkscape:label="MajorYDiv11"
           style="fill:none;stroke:#2d2d2d;stroke-width:3.61086297;stroke-miterlimit:4;stroke-dasharray:none"
           d="m 0,1100 2000,0"
           id="path10593"
           inkscape:connector-curvature="0" />
        <path
           inkscape:label="MajorYDiv12"
           style="fill:none;stroke:#2d2d2d;stroke-width:3.61086297;stroke-miterlimit:4;stroke-dasharray:none"
           d="m 0,1200 2000,0"
           id="path10595"
           inkscape:connector-curvature="0" />
        <path
           inkscape:label="MajorYDiv13"
           style="fill:none;stroke:#2d2d2d;stroke-width:3.61086297;stroke-miterlimit:4;stroke-dasharray:none"
           d="m 0,1300 2000,0"
           id="path10597"
           inkscape:connector-curvature="0" />
        <path
           inkscape:label="MajorYDiv14"
           style="fill:none;stroke:#2d2d2d;stroke-width:3.61086297;stroke-miterlimit:4;stroke-dasharray:none"
           d="m 0,1400 2000,0"
           id="path10599"
           inkscape:connector-curvature="0" />
        <path
           inkscape:label="MajorYDiv15"
           style="fill:none;stroke:#2d2d2d;stroke-width:3.61086297;stroke-miterlimit:4;stroke-dasharray:none"
           d="m 0,1500 2000,0"
           id="path10601"
           inkscape:connector-curvature="0" />
        <path
           inkscape:label="MajorYDiv16"
           style="fill:none;stroke:#2d2d2d;stroke-width:3.61086297;stroke-miterlimit:4;stroke-dasharray:none"
           d="m 0,1600 2000,0"
           id="path10603"
           inkscape:connector-curvature="0" />
        <path
           inkscape:label="MajorYDiv17"
           style="fill:none;stroke:#2d2d2d;stroke-width:3.61086297;stroke-miterlimit:4;stroke-dasharray:none"
           d="m 0,1700 2000,0"
           id="path10605"
           inkscape:connector-curvature="0" />
        <path
           inkscape:label="MajorYDiv18"
           style="fill:none;stroke:#2d2d2d;stroke-width:3.61086297;stroke-miterlimit:4;stroke-dasharray:none"
           d="m 0,1800 2000,0"
           id="path10607"
           inkscape:connector-curvature="0" />
        <path
           inkscape:label="MajorYDiv19"
           style="fill:none;stroke:#2d2d2d;stroke-width:3.61086297;stroke-miterlimit:4;stroke-dasharray:none"
           d="m 0,1900 2000,0"
           id="path10609"
           inkscape:connector-curvature="0" />
      </g>
      <rect
         style="fill:none;stroke:#2d2d2d;stroke-width:3.61086297;stroke-miterlimit:4;stroke-dasharray:none"
         width="2000"
         height="2000"
         inkscape:label="Border"
         y="0"
         x="0"
         id="rect10611" />
    </g>
  </g>
  <g
     style="display:inline"
     inkscape:label="Axes"
     inkscape:groupmode="layer"
     id="layer1"
     sodipodi:insensitive="true">
    <path
       style="fill:none;stroke:#2d2d2d;stroke-width:12.5;stroke-linecap:butt;stroke-linejoin:miter;stroke-miterlimit:4;stroke-opacity:1;stroke-dasharray:none"
       d="m -717.14286,1064.8593 c -693.25364,0 2774.13496,0 2080.88136,0"
       id="path4570"
       inkscape:connector-curvature="0"
       sodipodi:nodetypes="cc" />
    <path
       style="fill:none;stroke:#2d2d2d;stroke-width:12.5;stroke-linecap:butt;stroke-linejoin:miter;stroke-miterlimit:4;stroke-opacity:1;stroke-dasharray:none"
       d="m -611.69946,1172.7877 c 0,694.2428 0,-2774.8107 0,-2080.56799"
       id="path4570-3"
       inkscape:connector-curvature="0"
       sodipodi:nodetypes="cc" />
    <flowRoot
       xml:space="preserve"
       id="flowRoot3037"
       style="font-size:16px;font-style:italic;font-variant:normal;font-weight:500;font-stretch:normal;text-align:start;line-height:125%;letter-spacing:0px;word-spacing:0px;writing-mode:lr-tb;text-anchor:start;fill:#000000;fill-opacity:1;stroke:none;font-family:CMU Serif;-inkscape-font-specification:Sans Italic"
       transform="matrix(1.6037978,0,0,1.6037978,-1160.398,706.68624)"><flowRegion
         id="flowRegion3039"><rect
           id="rect3041"
           width="212.70068"
           height="231.74149"
           x="322.83875"
           y="-1100.4694" /></flowRegion><flowPara
         id="flowPara3043"
         style="font-size:72px">y</flowPara></flowRoot>    <flowRoot
       xml:space="preserve"
       id="flowRoot3037-6"
       style="font-size:16px;font-style:italic;font-variant:normal;font-weight:500;font-stretch:normal;text-align:start;line-height:125%;letter-spacing:0px;word-spacing:0px;writing-mode:lr-tb;text-anchor:start;fill:#000000;fill-opacity:1;stroke:none;font-family:CMU Serif;-inkscape-font-specification:Sans Italic"
       transform="matrix(1.4934289,0,0,1.4934289,910.87161,2636.077)"><flowRegion
         id="flowRegion3039-6"><rect
           id="rect3041-3"
           width="212.70068"
           height="231.74149"
           x="322.83875"
           y="-1100.4694" /></flowRegion><flowPara
         id="flowPara3043-7"
         style="font-size:72px">x</flowPara></flowRoot>    <path
       sodipodi:nodetypes="csssc"
       inkscape:connector-curvature="0"
       id="path3306"
       d="m -606.25,86.737133 c 0,0 225,-240.624993 471.875,-159.375 C 112.5,8.6121326 300,174.23713 515.625,124.23713 c 215.625,-49.999997 461.7188,-327.34374 668.75,-306.24999 164.1549,16.72522 150,75 178.125,99.999993"
       style="fill:none;stroke:#0084c8;stroke-width:5;stroke-linecap:butt;stroke-linejoin:miter;stroke-miterlimit:4;stroke-opacity:1;stroke-dasharray:none;display:inline" />
  </g>
  <g
     inkscape:groupmode="layer"
     id="layer4"
     inkscape:label="box">
    <rect
       style="opacity:0.35;fill:#d76cff;fill-opacity:1;stroke:none"
       id="rect4446"
       width="1971.1407"
       height="1246.4478"
       x="-606.25"
       y="-188.26282" />
  </g>
  <g
     inkscape:label="Content"
     id="layer3"
     inkscape:groupmode="layer">
    <g
       id="g4136"
       style="fill:#005c94;stroke:#0084c8;stroke-width:0.0000001;display:inline"
       ns0:page_width="8.5in"
       ns0:preamble=""
       ns0:text="$f(x)$"
       transform="matrix(13.137715,0,0,13.137715,520.5277,-273.48692)">
      <defs
         id="defs4138">
        <g
           id="g4140">
          <symbol
             id="textext-cd6cbad0-0"
             overflow="visible"
             style="overflow:visible">
            <path
               id="path4143"
               d=""
               style="stroke:none"
               inkscape:connector-curvature="0" />
          </symbol>
          <symbol
             id="textext-cd6cbad0-1"
             overflow="visible"
             style="overflow:visible">
            <path
               id="path4146"
               d="m 3.65625,-3.984375 0.859375,0 c 0.203125,0 0.296875,0 0.296875,-0.203125 0,-0.109375 -0.09375,-0.109375 -0.265625,-0.109375 l -0.828125,0 0.203125,-1.140625 c 0.046875,-0.203125 0.1875,-0.90625 0.25,-1.03125 0.078125,-0.1875 0.25,-0.34375 0.46875,-0.34375 0.03125,0 0.296875,0 0.484375,0.1875 -0.4375,0.03125 -0.546875,0.390625 -0.546875,0.53125 0,0.234375 0.1875,0.359375 0.375,0.359375 C 5.21875,-5.734375 5.5,-5.96875 5.5,-6.34375 c 0,-0.453125 -0.453125,-0.6875 -0.859375,-0.6875 -0.34375,0 -0.96875,0.1875 -1.265625,1.171875 -0.0625,0.203125 -0.09375,0.3125 -0.328125,1.5625 l -0.6875,0 c -0.203125,0 -0.3125,0 -0.3125,0.1875 0,0.125 0.09375,0.125 0.28125,0.125 l 0.65625,0 -0.734375,3.9375 c -0.1875,0.96875 -0.359375,1.875 -0.875,1.875 -0.046875,0 -0.28125,0 -0.484375,-0.1875 C 1.359375,1.609375 1.453125,1.25 1.453125,1.109375 1.453125,0.875 1.265625,0.75 1.078125,0.75 0.8125,0.75 0.53125,0.984375 0.53125,1.359375 c 0,0.4375 0.4375,0.6875 0.84375,0.6875 0.546875,0 0.953125,-0.59375 1.125,-0.96875 0.328125,-0.625 0.546875,-1.828125 0.5625,-1.90625 z"
               style="stroke:none"
               inkscape:connector-curvature="0" />
          </symbol>
          <symbol
             id="textext-cd6cbad0-2"
             overflow="visible"
             style="overflow:visible">
            <path
               id="path4149"
               d="M 3.328125,-3.015625 C 3.390625,-3.265625 3.625,-4.1875 4.3125,-4.1875 c 0.046875,0 0.296875,0 0.5,0.125 C 4.53125,-4 4.34375,-3.765625 4.34375,-3.515625 c 0,0.15625 0.109375,0.34375 0.375,0.34375 0.21875,0 0.53125,-0.171875 0.53125,-0.578125 0,-0.515625 -0.578125,-0.65625 -0.921875,-0.65625 -0.578125,0 -0.921875,0.53125 -1.046875,0.75 -0.25,-0.65625 -0.78125,-0.75 -1.078125,-0.75 -1.03125,0 -1.609375,1.28125 -1.609375,1.53125 0,0.109375 0.109375,0.109375 0.125,0.109375 0.078125,0 0.109375,-0.03125 0.125,-0.109375 0.34375,-1.0625 1,-1.3125 1.34375,-1.3125 0.1875,0 0.53125,0.09375 0.53125,0.671875 0,0.3125 -0.171875,0.96875 -0.53125,2.375 -0.15625,0.609375 -0.515625,1.03125 -0.953125,1.03125 -0.0625,0 -0.28125,0 -0.5,-0.125 0.25,-0.0625 0.46875,-0.265625 0.46875,-0.546875 0,-0.265625 -0.21875,-0.34375 -0.359375,-0.34375 -0.3125,0 -0.546875,0.25 -0.546875,0.578125 0,0.453125 0.484375,0.65625 0.921875,0.65625 0.671875,0 1.03125,-0.703125 1.046875,-0.75 0.125,0.359375 0.484375,0.75 1.078125,0.75 1.03125,0 1.59375,-1.28125 1.59375,-1.53125 0,-0.109375 -0.078125,-0.109375 -0.109375,-0.109375 -0.09375,0 -0.109375,0.046875 -0.140625,0.109375 -0.328125,1.078125 -1,1.3125 -1.3125,1.3125 -0.390625,0 -0.546875,-0.3125 -0.546875,-0.65625 0,-0.21875 0.046875,-0.4375 0.15625,-0.875 z"
               style="stroke:none"
               inkscape:connector-curvature="0" />
          </symbol>
          <symbol
             id="textext-cd6cbad0-3"
             overflow="visible"
             style="overflow:visible">
            <path
               id="path4152"
               d=""
               style="stroke:none"
               inkscape:connector-curvature="0" />
          </symbol>
          <symbol
             id="textext-cd6cbad0-4"
             overflow="visible"
             style="overflow:visible">
            <path
               id="path4155"
               d="m 3.296875,2.390625 c 0,-0.03125 0,-0.046875 -0.171875,-0.21875 C 1.890625,0.921875 1.5625,-0.96875 1.5625,-2.5 c 0,-1.734375 0.375,-3.46875 1.609375,-4.703125 0.125,-0.125 0.125,-0.140625 0.125,-0.171875 0,-0.078125 -0.03125,-0.109375 -0.09375,-0.109375 -0.109375,0 -1,0.6875 -1.59375,1.953125 -0.5,1.09375 -0.625,2.203125 -0.625,3.03125 0,0.78125 0.109375,1.984375 0.65625,3.125 C 2.25,1.84375 3.09375,2.5 3.203125,2.5 c 0.0625,0 0.09375,-0.03125 0.09375,-0.109375 z"
               style="stroke:none"
               inkscape:connector-curvature="0" />
          </symbol>
          <symbol
             id="textext-cd6cbad0-5"
             overflow="visible"
             style="overflow:visible">
            <path
               id="path4158"
               d="m 2.875,-2.5 c 0,-0.765625 -0.109375,-1.96875 -0.65625,-3.109375 -0.59375,-1.21875 -1.453125,-1.875 -1.546875,-1.875 -0.0625,0 -0.109375,0.046875 -0.109375,0.109375 0,0.03125 0,0.046875 0.1875,0.234375 0.984375,0.984375 1.546875,2.5625 1.546875,4.640625 0,1.71875 -0.359375,3.46875 -1.59375,4.71875 C 0.5625,2.34375 0.5625,2.359375 0.5625,2.390625 0.5625,2.453125 0.609375,2.5 0.671875,2.5 0.765625,2.5 1.671875,1.8125 2.25,0.546875 2.765625,-0.546875 2.875,-1.65625 2.875,-2.5 z"
               style="stroke:none"
               inkscape:connector-curvature="0" />
          </symbol>
        </g>
      </defs>
      <g
         id="textext-cd6cbad0-6"
         style="fill:#005c94;stroke:#0084c8">
        <g
           id="g4161"
           style="fill:#005c94;fill-opacity:1;stroke:#0084c8">
          <use
             id="use4163"
             y="9.9630003"
             x="0"
             xlink:href="#textext-cd6cbad0-1"
             width="744.09448"
             height="1052.3622"
             style="fill:#005c94;stroke:#0084c8" />
        </g>
        <g
           id="g4165"
           style="fill:#005c94;fill-opacity:1;stroke:#0084c8">
          <use
             id="use4167"
             y="9.9630003"
             x="5.9499998"
             xlink:href="#textext-cd6cbad0-4"
             width="744.09448"
             height="1052.3622"
             style="fill:#005c94;stroke:#0084c8" />
        </g>
        <g
           id="g4169"
           style="fill:#005c94;fill-opacity:1;stroke:#0084c8">
          <use
             id="use4171"
             y="9.9630003"
             x="9.8240004"
             xlink:href="#textext-cd6cbad0-2"
             width="744.09448"
             height="1052.3622"
             style="fill:#005c94;stroke:#0084c8" />
        </g>
        <g
           id="g4173"
           style="fill:#005c94;fill-opacity:1;stroke:#0084c8">
          <use
             id="use4175"
             y="9.9630003"
             x="15.518"
             xlink:href="#textext-cd6cbad0-5"
             width="744.09448"
             height="1052.3622"
             style="fill:#005c94;stroke:#0084c8" />
        </g>
      </g>
    </g>
  </g>
</svg>
