<?xml version="1.0" encoding="UTF-8" standalone="no"?>
<!-- Created with Inkscape (http://www.inkscape.org/) -->

<svg
   xmlns:ns0="http://www.iki.fi/pav/software/textext/"
   xmlns:dc="http://purl.org/dc/elements/1.1/"
   xmlns:cc="http://creativecommons.org/ns#"
   xmlns:rdf="http://www.w3.org/1999/02/22-rdf-syntax-ns#"
   xmlns:svg="http://www.w3.org/2000/svg"
   xmlns="http://www.w3.org/2000/svg"
   xmlns:xlink="http://www.w3.org/1999/xlink"
   xmlns:sodipodi="http://sodipodi.sourceforge.net/DTD/sodipodi-0.dtd"
   xmlns:inkscape="http://www.inkscape.org/namespaces/inkscape"
   sodipodi:docname="New document 5"
   inkscape:version="0.48.3.1 r9886"
   version="1.1"
   id="svg3225"
   height="1052.3622047"
   width="744.09448819">
  <sodipodi:namedview
     id="base"
     pagecolor="#ffffff"
     bordercolor="#666666"
     borderopacity="1.0"
     inkscape:pageopacity="0.0"
     inkscape:pageshadow="2"
     inkscape:zoom="1.8101934"
     inkscape:cx="347.03216"
     inkscape:cy="552.17942"
     inkscape:document-units="px"
     inkscape:current-layer="layer1"
     showgrid="false"
     inkscape:window-width="1600"
     inkscape:window-height="900"
     inkscape:window-x="0"
     inkscape:window-y="0"
     inkscape:window-maximized="0" />
  <defs
     id="defs3227" />
  <metadata
     id="metadata3230">
    <rdf:RDF>
      <cc:Work
         rdf:about="">
        <dc:format>image/svg+xml</dc:format>
        <dc:type
           rdf:resource="http://purl.org/dc/dcmitype/StillImage" />
        <dc:title></dc:title>
      </cc:Work>
    </rdf:RDF>
  </metadata>
  <g
     id="layer1"
     inkscape:groupmode="layer"
     inkscape:label="Layer 1">
    <path
       inkscape:connector-curvature="0"
       id="path3233"
       d="m 200.18045,515.33963 283.90978,-191.5188 0,191.5188 z"
       style="fill:none;stroke:#000000;stroke-width:1px;stroke-linecap:butt;stroke-linejoin:miter;stroke-opacity:1" />
    <g
       id="g5007"
       transform="translate(-18.782524,6.6291261)">
      <g
         id="g3556"
         style="stroke-width:0.0000001"
         ns0:page_width="6in"
         ns0:preamble=""
         ns0:text="$\\sqrt{x^2-2^2}$"
         transform="matrix(2.5,0,0,2.5,509.375,400)">
        <defs
           id="defs3558">
          <g
             id="g3560">
            <symbol
               id="textext-6d8a7f5b-0"
               overflow="visible"
               style="overflow:visible">
              <path
                 id="path3563"
                 d=""
                 style="stroke:none"
                 inkscape:connector-curvature="0" />
            </symbol>
            <symbol
               id="textext-6d8a7f5b-1"
               overflow="visible"
               style="overflow:visible">
              <path
                 id="path3566"
                 d="m 3.875,8.515625 -1.75,-3.875 C 2.046875,4.484375 2,4.484375 1.96875,4.484375 c 0,0 -0.0625,0 -0.171875,0.078125 l -0.9375,0.71875 c -0.125,0.109375 -0.125,0.125 -0.125,0.15625 0,0.0625 0.015625,0.109375 0.09375,0.109375 0.0625,0 0.234375,-0.140625 0.34375,-0.21875 C 1.21875,5.28125 1.375,5.171875 1.484375,5.09375 l 1.96875,4.3125 C 3.515625,9.5625 3.5625,9.5625 3.65625,9.5625 c 0.15625,0 0.1875,-0.046875 0.25,-0.1875 L 8.4375,0 C 8.5,-0.140625 8.5,-0.171875 8.5,-0.203125 8.5,-0.296875 8.421875,-0.40625 8.296875,-0.40625 c -0.078125,0 -0.140625,0.0625 -0.21875,0.21875 z"
                 style="stroke:none"
                 inkscape:connector-curvature="0" />
            </symbol>
            <symbol
               id="textext-6d8a7f5b-2"
               overflow="visible"
               style="overflow:visible">
              <path
                 id="path3569"
                 d="m 6.5625,-2.296875 c 0.171875,0 0.359375,0 0.359375,-0.203125 0,-0.1875 -0.1875,-0.1875 -0.359375,-0.1875 l -5.390625,0 c -0.171875,0 -0.34375,0 -0.34375,0.1875 0,0.203125 0.171875,0.203125 0.34375,0.203125 z"
                 style="stroke:none"
                 inkscape:connector-curvature="0" />
            </symbol>
            <symbol
               id="textext-6d8a7f5b-3"
               overflow="visible"
               style="overflow:visible">
              <path
                 id="path3572"
                 d=""
                 style="stroke:none"
                 inkscape:connector-curvature="0" />
            </symbol>
            <symbol
               id="textext-6d8a7f5b-4"
               overflow="visible"
               style="overflow:visible">
              <path
                 id="path3575"
                 d="M 3.328125,-3.015625 C 3.390625,-3.265625 3.625,-4.1875 4.3125,-4.1875 c 0.046875,0 0.296875,0 0.5,0.125 C 4.53125,-4 4.34375,-3.765625 4.34375,-3.515625 c 0,0.15625 0.109375,0.34375 0.375,0.34375 0.21875,0 0.53125,-0.171875 0.53125,-0.578125 0,-0.515625 -0.578125,-0.65625 -0.921875,-0.65625 -0.578125,0 -0.921875,0.53125 -1.046875,0.75 -0.25,-0.65625 -0.78125,-0.75 -1.078125,-0.75 -1.03125,0 -1.609375,1.28125 -1.609375,1.53125 0,0.109375 0.109375,0.109375 0.125,0.109375 0.078125,0 0.109375,-0.03125 0.125,-0.109375 0.34375,-1.0625 1,-1.3125 1.34375,-1.3125 0.1875,0 0.53125,0.09375 0.53125,0.671875 0,0.3125 -0.171875,0.96875 -0.53125,2.375 -0.15625,0.609375 -0.515625,1.03125 -0.953125,1.03125 -0.0625,0 -0.28125,0 -0.5,-0.125 0.25,-0.0625 0.46875,-0.265625 0.46875,-0.546875 0,-0.265625 -0.21875,-0.34375 -0.359375,-0.34375 -0.3125,0 -0.546875,0.25 -0.546875,0.578125 0,0.453125 0.484375,0.65625 0.921875,0.65625 0.671875,0 1.03125,-0.703125 1.046875,-0.75 0.125,0.359375 0.484375,0.75 1.078125,0.75 1.03125,0 1.59375,-1.28125 1.59375,-1.53125 0,-0.109375 -0.078125,-0.109375 -0.109375,-0.109375 -0.09375,0 -0.109375,0.046875 -0.140625,0.109375 -0.328125,1.078125 -1,1.3125 -1.3125,1.3125 -0.390625,0 -0.546875,-0.3125 -0.546875,-0.65625 0,-0.21875 0.046875,-0.4375 0.15625,-0.875 z"
                 style="stroke:none"
                 inkscape:connector-curvature="0" />
            </symbol>
            <symbol
               id="textext-6d8a7f5b-5"
               overflow="visible"
               style="overflow:visible">
              <path
                 id="path3578"
                 d=""
                 style="stroke:none"
                 inkscape:connector-curvature="0" />
            </symbol>
            <symbol
               id="textext-6d8a7f5b-6"
               overflow="visible"
               style="overflow:visible">
              <path
                 id="path3581"
                 d="m 3.515625,-1.265625 -0.234375,0 c -0.015625,0.15625 -0.09375,0.5625 -0.1875,0.625 -0.046875,0.046875 -0.578125,0.046875 -0.6875,0.046875 l -1.28125,0 c 0.734375,-0.640625 0.984375,-0.84375 1.390625,-1.171875 0.515625,-0.40625 1,-0.84375 1,-1.5 0,-0.84375 -0.734375,-1.359375 -1.625,-1.359375 -0.859375,0 -1.453125,0.609375 -1.453125,1.25 0,0.34375 0.296875,0.390625 0.375,0.390625 0.15625,0 0.359375,-0.125 0.359375,-0.375 0,-0.125 -0.046875,-0.375 -0.40625,-0.375 C 0.984375,-4.21875 1.453125,-4.375 1.78125,-4.375 c 0.703125,0 1.0625,0.546875 1.0625,1.109375 0,0.609375 -0.4375,1.078125 -0.65625,1.328125 L 0.515625,-0.265625 C 0.4375,-0.203125 0.4375,-0.1875 0.4375,0 l 2.875,0 z"
                 style="stroke:none"
                 inkscape:connector-curvature="0" />
            </symbol>
            <symbol
               id="textext-6d8a7f5b-7"
               overflow="visible"
               style="overflow:visible">
              <path
                 id="path3584"
                 d=""
                 style="stroke:none"
                 inkscape:connector-curvature="0" />
            </symbol>
            <symbol
               id="textext-6d8a7f5b-8"
               overflow="visible"
               style="overflow:visible">
              <path
                 id="path3587"
                 d="m 1.265625,-0.765625 1.0625,-1.03125 c 1.546875,-1.375 2.140625,-1.90625 2.140625,-2.90625 0,-1.140625 -0.890625,-1.9375 -2.109375,-1.9375 -1.125,0 -1.859375,0.921875 -1.859375,1.8125 0,0.546875 0.5,0.546875 0.53125,0.546875 0.171875,0 0.515625,-0.109375 0.515625,-0.53125 0,-0.25 -0.1875,-0.515625 -0.53125,-0.515625 -0.078125,0 -0.09375,0 -0.125,0.015625 0.21875,-0.65625 0.765625,-1.015625 1.34375,-1.015625 0.90625,0 1.328125,0.8125 1.328125,1.625 C 3.5625,-3.90625 3.078125,-3.125 2.515625,-2.5 l -1.90625,2.125 C 0.5,-0.265625 0.5,-0.234375 0.5,0 l 3.703125,0 0.265625,-1.734375 -0.234375,0 C 4.171875,-1.4375 4.109375,-1 4,-0.84375 3.9375,-0.765625 3.28125,-0.765625 3.0625,-0.765625 z"
                 style="stroke:none"
                 inkscape:connector-curvature="0" />
            </symbol>
          </g>
        </defs>
        <g
           id="textext-6d8a7f5b-9">
          <g
             id="g3590"
             style="fill:#000000;fill-opacity:1">
            <use
               id="use3592"
               y="1.661"
               x="0"
               xlink:href="#textext-6d8a7f5b-1"
               width="744.09448"
               height="1052.3622" />
          </g>
          <path
             id="path3594"
             transform="matrix(1,0,0,-1,8.302,1.462)"
             d="m 0.198,-0.038 32,0"
             style="fill:none;stroke:#000000;stroke-width:1;stroke-linecap:butt;stroke-linejoin:miter;stroke-miterlimit:10;stroke-opacity:1"
             inkscape:connector-curvature="0" />
          <g
             id="g3596"
             style="fill:#000000;fill-opacity:1">
            <use
               id="use3598"
               y="9.9630003"
               x="8.302"
               xlink:href="#textext-6d8a7f5b-4"
               width="744.09448"
               height="1052.3622" />
          </g>
          <g
             id="g3600"
             style="fill:#000000;fill-opacity:1">
            <use
               id="use3602"
               y="7.085"
               x="13.996"
               xlink:href="#textext-6d8a7f5b-6"
               width="744.09448"
               height="1052.3622" />
          </g>
          <g
             id="g3604"
             style="fill:#000000;fill-opacity:1">
            <use
               id="use3606"
               y="9.9630003"
               x="20.679001"
               xlink:href="#textext-6d8a7f5b-2"
               width="744.09448"
               height="1052.3622" />
          </g>
          <g
             id="g3608"
             style="fill:#000000;fill-opacity:1">
            <use
               id="use3610"
               y="9.9630003"
               x="30.642"
               xlink:href="#textext-6d8a7f5b-8"
               width="744.09448"
               height="1052.3622" />
          </g>
          <g
             id="g3612"
             style="fill:#000000;fill-opacity:1">
            <use
               id="use3614"
               y="7.085"
               x="35.623001"
               xlink:href="#textext-6d8a7f5b-6"
               width="744.09448"
               height="1052.3622" />
          </g>
        </g>
      </g>
    </g>
    <g
       id="g3707"
       style="stroke-width:0.0000001"
       ns0:page_width="6in"
       ns0:preamble=""
       ns0:text="$x$"
       transform="matrix(2.5,0,0,2.5,333.58701,375.83677)">
      <defs
         id="defs3709">
        <g
           id="g3711">
          <symbol
             id="textext-6030bd62-0"
             overflow="visible"
             style="overflow:visible">
            <path
               id="path3714"
               d=""
               style="stroke:none"
               inkscape:connector-curvature="0" />
          </symbol>
          <symbol
             id="textext-6030bd62-1"
             overflow="visible"
             style="overflow:visible">
            <path
               id="path3717"
               d="M 3.328125,-3.015625 C 3.390625,-3.265625 3.625,-4.1875 4.3125,-4.1875 c 0.046875,0 0.296875,0 0.5,0.125 C 4.53125,-4 4.34375,-3.765625 4.34375,-3.515625 c 0,0.15625 0.109375,0.34375 0.375,0.34375 0.21875,0 0.53125,-0.171875 0.53125,-0.578125 0,-0.515625 -0.578125,-0.65625 -0.921875,-0.65625 -0.578125,0 -0.921875,0.53125 -1.046875,0.75 -0.25,-0.65625 -0.78125,-0.75 -1.078125,-0.75 -1.03125,0 -1.609375,1.28125 -1.609375,1.53125 0,0.109375 0.109375,0.109375 0.125,0.109375 0.078125,0 0.109375,-0.03125 0.125,-0.109375 0.34375,-1.0625 1,-1.3125 1.34375,-1.3125 0.1875,0 0.53125,0.09375 0.53125,0.671875 0,0.3125 -0.171875,0.96875 -0.53125,2.375 -0.15625,0.609375 -0.515625,1.03125 -0.953125,1.03125 -0.0625,0 -0.28125,0 -0.5,-0.125 0.25,-0.0625 0.46875,-0.265625 0.46875,-0.546875 0,-0.265625 -0.21875,-0.34375 -0.359375,-0.34375 -0.3125,0 -0.546875,0.25 -0.546875,0.578125 0,0.453125 0.484375,0.65625 0.921875,0.65625 0.671875,0 1.03125,-0.703125 1.046875,-0.75 0.125,0.359375 0.484375,0.75 1.078125,0.75 1.03125,0 1.59375,-1.28125 1.59375,-1.53125 0,-0.109375 -0.078125,-0.109375 -0.109375,-0.109375 -0.09375,0 -0.109375,0.046875 -0.140625,0.109375 -0.328125,1.078125 -1,1.3125 -1.3125,1.3125 -0.390625,0 -0.546875,-0.3125 -0.546875,-0.65625 0,-0.21875 0.046875,-0.4375 0.15625,-0.875 z"
               style="stroke:none"
               inkscape:connector-curvature="0" />
          </symbol>
        </g>
      </defs>
      <g
         id="textext-6030bd62-2">
        <g
           id="g3720"
           style="fill:#000000;fill-opacity:1">
          <use
             id="use3722"
             y="9.9630003"
             x="0"
             xlink:href="#textext-6030bd62-1"
             width="744.09448"
             height="1052.3622" />
        </g>
      </g>
    </g>
    <g
       transform="matrix(2.5,0,0,2.5,351.29442,516.42925)"
       ns0:text="$2$"
       ns0:preamble=""
       ns0:page_width="6in"
       style="stroke-width:0.0000001"
       id="g3824">
      <defs
         id="defs3826">
        <g
           id="g3828">
          <symbol
             style="overflow:visible"
             overflow="visible"
             id="textext-0b040ec1-0">
            <path
               inkscape:connector-curvature="0"
               style="stroke:none"
               d=""
               id="path3831" />
          </symbol>
          <symbol
             style="overflow:visible"
             overflow="visible"
             id="textext-0b040ec1-1">
            <path
               inkscape:connector-curvature="0"
               style="stroke:none"
               d="m 1.265625,-0.765625 1.0625,-1.03125 c 1.546875,-1.375 2.140625,-1.90625 2.140625,-2.90625 0,-1.140625 -0.890625,-1.9375 -2.109375,-1.9375 -1.125,0 -1.859375,0.921875 -1.859375,1.8125 0,0.546875 0.5,0.546875 0.53125,0.546875 0.171875,0 0.515625,-0.109375 0.515625,-0.53125 0,-0.25 -0.1875,-0.515625 -0.53125,-0.515625 -0.078125,0 -0.09375,0 -0.125,0.015625 0.21875,-0.65625 0.765625,-1.015625 1.34375,-1.015625 0.90625,0 1.328125,0.8125 1.328125,1.625 C 3.5625,-3.90625 3.078125,-3.125 2.515625,-2.5 l -1.90625,2.125 C 0.5,-0.265625 0.5,-0.234375 0.5,0 l 3.703125,0 0.265625,-1.734375 -0.234375,0 C 4.171875,-1.4375 4.109375,-1 4,-0.84375 3.9375,-0.765625 3.28125,-0.765625 3.0625,-0.765625 z"
               id="path3834" />
          </symbol>
        </g>
      </defs>
      <g
         id="textext-0b040ec1-2">
        <g
           style="fill:#000000;fill-opacity:1"
           id="g3837">
          <use
             height="1052.3622"
             width="744.09448"
             xlink:href="#textext-0b040ec1-1"
             x="0"
             y="9.9630003"
             id="use3839" />
        </g>
      </g>
    </g>
    <g
       id="g4141"
       style="stroke-width:0.0000001"
       ns0:page_width="6in"
       ns0:preamble=""
       ns0:text="$\\theta$\n"
       transform="matrix(2.5,0,0,2.5,289.16016,474.23202)">
      <defs
         id="defs4143">
        <g
           id="g4145">
          <symbol
             id="textext-fa799660-0"
             overflow="visible"
             style="overflow:visible">
            <path
               id="path4148"
               d=""
               style="stroke:none"
               inkscape:connector-curvature="0" />
          </symbol>
          <symbol
             id="textext-fa799660-1"
             overflow="visible"
             style="overflow:visible">
            <path
               id="path4151"
               d="m 4.53125,-4.984375 c 0,-0.65625 -0.171875,-2.046875 -1.1875,-2.046875 -1.390625,0 -2.921875,2.8125 -2.921875,5.09375 0,0.9375 0.28125,2.046875 1.1875,2.046875 1.40625,0 2.921875,-2.859375 2.921875,-5.09375 z M 1.46875,-3.625 C 1.640625,-4.25 1.84375,-5.046875 2.25,-5.765625 2.515625,-6.25 2.875,-6.8125 3.328125,-6.8125 c 0.484375,0 0.546875,0.640625 0.546875,1.203125 0,0.5 -0.078125,1 -0.3125,1.984375 z m 2,0.328125 C 3.359375,-2.84375 3.15625,-2 2.765625,-1.28125 c -0.34375,0.6875 -0.71875,1.171875 -1.15625,1.171875 -0.328125,0 -0.53125,-0.296875 -0.53125,-1.21875 0,-0.421875 0.0625,-1 0.3125,-1.96875 z"
               style="stroke:none"
               inkscape:connector-curvature="0" />
          </symbol>
        </g>
      </defs>
      <g
         id="textext-fa799660-2">
        <g
           id="g4154"
           style="fill:#000000;fill-opacity:1">
          <use
             id="use4156"
             y="9.9630003"
             x="0"
             xlink:href="#textext-fa799660-1"
             width="744.09448"
             height="1052.3622" />
        </g>
      </g>
    </g>
    <path
       style="fill:none;stroke:#000000;stroke-width:1;stroke-linecap:butt;stroke-linejoin:miter;stroke-opacity:1;stroke-miterlimit:4;stroke-dasharray:1,1;stroke-dashoffset:0"
       d="m 273.04688,514.66687 c 8.78906,-5.46876 14.64458,-14.2767 10.35156,-25.39062 C 278.41083,476.36416 262.5,474.04187 262.5,474.04187"
       id="path4237"
       inkscape:connector-curvature="0"
       sodipodi:nodetypes="csc" />
  </g>
  <flowRoot
     style="fill:#000000;stroke:none;stroke-opacity:1;stroke-width:1px;stroke-linejoin:miter;stroke-linecap:butt;color:#000000;fill-opacity:1;fill-rule:nonzero;marker:none;marker-start:none;marker-mid:none;marker-end:none;visibility:visible;display:inline;overflow:visible;enable-background:accumulate;line-height:125%;letter-spacing:0px;word-spacing:0px"
     id="flowRoot4027"
     xml:space="preserve"><flowRegion
       id="flowRegion4029"><rect
         y="183.61218"
         x="66.40625"
         height="25.78125"
         width="35.15625"
         id="rect4031" /></flowRegion><flowPara
       id="flowPara4033" /></flowRoot></svg>
